<?xml version="1.0" encoding="UTF-8" standalone="no"?>
<!-- Created with Inkscape (http://www.inkscape.org/) -->

<svg
   xmlns:dc="http://purl.org/dc/elements/1.1/"
   xmlns:cc="http://creativecommons.org/ns#"
   xmlns:rdf="http://www.w3.org/1999/02/22-rdf-syntax-ns#"
   xmlns:svg="http://www.w3.org/2000/svg"
   xmlns="http://www.w3.org/2000/svg"
   xmlns:sodipodi="http://sodipodi.sourceforge.net/DTD/sodipodi-0.dtd"
   xmlns:inkscape="http://www.inkscape.org/namespaces/inkscape"
   width="5mm"
   height="9.8000002mm"
   viewBox="0 0 5 9.8000002"
   version="1.1"
   id="svg864"
   inkscape:version="0.92.4 (5da689c313, 2019-01-14)"
   sodipodi:docname="SIMBOLO.svg">
  <defs
     id="defs858" />
  <sodipodi:namedview
     id="base"
     pagecolor="#ffffff"
     bordercolor="#666666"
     borderopacity="1.0"
     inkscape:pageopacity="0.0"
     inkscape:pageshadow="2"
     inkscape:zoom="3.959798"
     inkscape:cx="60.417517"
     inkscape:cy="56.288676"
     inkscape:document-units="mm"
     inkscape:current-layer="layer1"
     showgrid="false"
     inkscape:window-width="1920"
     inkscape:window-height="1001"
     inkscape:window-x="-9"
     inkscape:window-y="-9"
     inkscape:window-maximized="1" />
  <metadata
     id="metadata861">
    <rdf:RDF>
      <cc:Work
         rdf:about="">
        <dc:format>image/svg+xml</dc:format>
        <dc:type
           rdf:resource="http://purl.org/dc/dcmitype/StillImage" />
        <dc:title></dc:title>
      </cc:Work>
    </rdf:RDF>
  </metadata>
  <g
     inkscape:label="Camada 1"
     inkscape:groupmode="layer"
     id="layer1"
     transform="translate(0,-287.2)">
    <path
       id="path3762"
       style="display:inline;fill:#000000;stroke:#000000;stroke-width:0.14709678"
       d="m 0.97174311,287.55137 c 6.73e-5,6.6e-4 2.755e-4,0.002 3.575e-4,0.002 -3.871e-4,9.8e-4 -2.01e-5,0.002 -3.575e-4,0.003 0.00167,1.4e-4 0.00282,-2e-4 0.00448,0 -0.00167,-0.002 -0.00337,-0.004 -0.00448,-0.005 z m -0.00341,0.0278 1.837e-4,0.001 c -0.00111,0.0125 -0.00336,0.0249 -0.00502,0.0375 -0.00111,0.004 -0.00176,0.008 -0.00287,0.0124 -0.021256,0.23918 -0.0237,0.47963 -0.019371,0.7196 0.020757,0.71292 0.053655,1.4254 0.07318,2.13837 0.00566,0.27368 0.00856,0.54739 0.012555,0.82112 -0.00388,-0.004 -0.00697,-0.01 -0.010582,-0.0142 -0.20187707,-0.25825 -0.41038387,-0.51265 -0.59082177,-0.78668 l -0.3077869,0.0181 c 0.1881133,0.2728 0.3986727,0.52898 0.6048121,0.78812 0.094709,0.12004 0.1875488,0.24175 0.27962687,0.36375 -0.017926,0.0108 -0.035938,0.021 -0.053809,0.0318 -0.3066422,0.1896 -0.5965782,0.40217 -0.8670408,0.64014 l 0.2982807,0.0257 c 0.2075601,-0.18263 0.4266648,-0.35029 0.65593059,-0.50401 0.00444,0.4799 0.00501,0.95987 -5.413e-4,1.43975 -0.010767,0.78033 -0.037829,1.56025 -0.081252,2.33943 -0.019424,0.36015 -0.050602,0.71966 -0.088785,1.07833 -0.00222,0.01 -0.00393,0.0197 -0.0061,0.0292 -4.232e-4,0.002 -1.837e-4,0.004 -5.413e-4,0.006 0.00111,-6.6e-4 0.0023,-9.9e-4 0.00341,-0.002 -5.511e-4,0.007 -0.00122,0.0137 -0.00233,0.0204 5.511e-4,-6.6e-4 0.00106,-9.9e-4 0.00161,-0.002 0.00499,-0.004 0.00945,-0.008 0.014169,-0.012 0.013153,-0.0102 0.025918,-0.0213 0.03946,-0.031 0.025918,-0.0121 0.051517,-0.0253 0.078023,-0.0353 0.4665455,-0.1706 0.9393695,-0.2867 1.4200173,-0.34187 0.461601,-0.0746 0.924626,-0.12959 1.38827,-0.17111 0.195806,-0.0136 0.391447,-0.03 0.587414,-0.0326 4.26e-4,-9.8e-4 0.0011,-0.005 0.0016,-0.006 0.01459,-0.0436 0.01036,-0.0281 0.0113,-0.0287 l -0.0091,-0.002 c 0.0033,3e-5 0.0067,-3.3e-4 0.01004,-3.3e-4 0.0033,-0.63064 -0.0028,-1.26125 -0.01668,-1.89174 -0.0167,-0.9207 -0.02702,-1.84176 -0.04932,-2.76237 -0.01132,-0.62819 -0.02723,-1.25716 -5.57e-4,-1.88511 0.01266,-0.23855 0.02342,-0.47799 0.06367,-0.71386 l -0.307967,-0.0129 c -0.03474,0.23782 -0.04499,0.478 -0.05542,0.71781 -0.01909,0.62907 0.0028,1.25919 0.01865,1.88816 0.02808,0.92046 0.03638,1.8411 0.04915,2.76183 0.01165,0.62235 0.01258,1.24495 0.0043,1.86735 -0.01321,1.4e-4 -0.02631,-3e-4 -0.03946,0 -0.187714,0.004 -0.375097,0.0228 -0.562662,0.0361 -0.461928,0.0441 -0.923345,0.0988 -1.3832481,0.1747 -0.3170205,0.0355 -0.6302009,0.10192 -0.9404005,0.19192 0.024974,-0.27973 0.046423,-0.55977 0.060087,-0.84032 0.039515,-0.77969 0.062791,-1.56022 0.072104,-2.34087 0.00388,-0.4049 0.00216,-0.81005 -3.576e-4,-1.215 0.1874641,0.25495 0.3736028,0.51099 0.5635587,0.76409 0.3294405,0.42724 0.6550545,0.85866 1.0132215,1.26253 l 0.296666,-0.0219 c -0.363516,-0.40084 -0.692045,-0.83182 -1.0230793,-1.25931 -0.2860628,-0.38017 -0.5620012,-0.76754 -0.8460554,-1.14918 0.4706747,-0.2835 0.9435917,-0.56338 1.4340077,-0.81198 0.22321,-0.11504 0.447842,-0.22734 0.67279,-0.33899 4.27e-4,6.5e-4 5.25e-4,9.8e-4 0.0011,0.002 0.0022,-0.002 0.005,-0.004 0.0072,-0.006 0.02365,-0.0118 0.04718,-0.0238 0.07085,-0.0355 5.58e-4,-0.004 0.0011,-0.009 0.0022,-0.0142 0.0022,-9.8e-4 0.004,-0.002 0.0061,-0.003 0.04329,-0.018 0.02352,-0.002 0.03928,-0.0158 0.03008,-0.0208 0.06005,-0.0418 0.09022,-0.0626 -0.156037,-0.19646 -0.307875,-0.39619 -0.465447,-0.59154 -0.346302,-0.4156 -0.708375,-0.81755 -1.0856842,-1.20514 -0.2895759,-0.28747 -0.5893429,-0.56417 -0.8914341,-0.83834 -0.00388,-0.005 -0.00733,-0.01 -0.010941,-0.0143 -0.00388,-6.5e-4 -0.00772,-0.004 -0.011659,-0.007 -0.017482,-0.0159 -0.034712,-0.032 -0.052195,-0.0479 l -0.00395,3.3e-4 c -0.00222,-0.002 -0.00391,-0.004 -0.00574,-0.006 -0.00594,-0.005 -0.01234,-0.009 -0.018833,-0.0133 -0.021811,-0.0106 -0.03722,-0.0293 -0.055423,-0.0445 -0.00955,-0.008 -0.014195,-0.0105 -0.024573,-0.0172 -0.016539,-0.0123 -0.035437,-0.023 -0.046814,-0.0409 -3.477e-4,-6.6e-4 -4.953e-4,-9.9e-4 -0.00108,-0.002 z m 3.11302519,0.24931 c -0.0039,0.021 -0.008,0.0418 -0.01202,0.0628 -0.0106,0.16115 0.0049,0.32054 0.02404,0.48069 l 0.308325,-0.004 c -0.02364,-0.15752 -0.03755,-0.31529 -0.02601,-0.47424 0.0044,-0.0196 0.0086,-0.0392 0.01291,-0.0588 z m -2.8416488,0.27299 c 0.1894507,0.17434 0.3774187,0.3504 0.5605094,0.53145 0.3767426,0.38565 0.7370984,0.78676 1.0803034,1.20263 0.150668,0.18854 0.295517,0.38121 0.441951,0.57289 -0.287784,0.14557 -0.575081,0.29191 -0.861122,0.44087 -0.3927047,0.20098 -0.7737537,0.42273 -1.1527664,0.64786 -0.00388,-0.33668 -0.00809,-0.67338 -0.013811,-1.00999 -0.016372,-0.71275 -0.045235,-1.4248 -0.056679,-2.13765 -5.512e-4,-0.0826 -7.4e-6,-0.16539 0.00161,-0.24806 z"
       inkscape:connector-curvature="0" />
  </g>
</svg>
